<svg width="29" height="24" viewBox="0 0 29 24" fill="none" xmlns="http://www.w3.org/2000/svg">
<path d="M25.1141 2.01478C24.4757 1.37604 23.7176 0.86934 22.8833 0.523637C22.049 0.177934 21.1547 0 20.2516 0C19.3485 0 18.4542 0.177934 17.6199 0.523637C16.7856 0.86934 16.0276 1.37604 15.3891 2.01478L14.0641 3.33978L12.7391 2.01478C11.4495 0.725167 9.7004 0.000668453 7.87661 0.000668466C6.05282 0.00066848 4.30373 0.725167 3.01411 2.01478C1.7245 3.3044 1 5.05349 1 6.87728C1 8.70107 1.7245 10.4502 3.01411 11.7398L14.0641 22.7898L25.1141 11.7398C25.7529 11.1013 26.2596 10.3433 26.6053 9.50898C26.951 8.67465 27.1289 7.78039 27.1289 6.87728C27.1289 5.97417 26.951 5.07991 26.6053 4.24559C26.2596 3.41126 25.7529 2.65323 25.1141 2.01478Z" stroke="black" stroke-opacity="0.2" stroke-width="2" stroke-linecap="round" stroke-linejoin="round"/>
</svg>
